<mxfile modified="2022-05-11T04:22:11.532Z" host="app.diagrams.net" agent="5.0 (Windows NT 10.0; Win64; x64) AppleWebKit/537.36 (KHTML, like Gecko) Chrome/101.0.4951.54 Safari/537.36 Edg/101.0.1210.39" etag="731iTRhk9yNjdEgBF86C" compressed="false" version="18.0.2" type="google">
  <diagram name="User Context/Decisions/Access" id="wuKyTM1Aeqc9ZpzhQ8_M">
    <mxGraphModel grid="1" page="1" gridSize="10" guides="1" tooltips="1" connect="1" arrows="1" fold="1" pageScale="1" pageWidth="827" pageHeight="1169" math="0" shadow="0">
      <root>
        <mxCell id="xtrtIprGjCq3bWZC8pVK-0" />
        <mxCell id="xtrtIprGjCq3bWZC8pVK-48" value="Diagram" style="" parent="xtrtIprGjCq3bWZC8pVK-0" />
        <mxCell id="xtrtIprGjCq3bWZC8pVK-3" value="Internal Only" style="rounded=0;whiteSpace=wrap;html=1;shadow=0;glass=0;comic=0;strokeColor=#B3B3B3;fillColor=none;fontSize=12;align=center;" vertex="1" parent="xtrtIprGjCq3bWZC8pVK-48">
          <mxGeometry x="210" y="200" width="80" height="40" as="geometry" />
        </mxCell>
        <mxCell id="xtrtIprGjCq3bWZC8pVK-4" value="Partners Only" style="rounded=0;whiteSpace=wrap;html=1;shadow=0;glass=0;comic=0;strokeColor=#B3B3B3;fillColor=none;fontSize=12;align=center;" vertex="1" parent="xtrtIprGjCq3bWZC8pVK-48">
          <mxGeometry x="300" y="200" width="80" height="40" as="geometry" />
        </mxCell>
        <mxCell id="xtrtIprGjCq3bWZC8pVK-5" value="Anywhere" style="rounded=0;whiteSpace=wrap;html=1;shadow=0;glass=0;comic=0;strokeColor=#B3B3B3;fillColor=none;fontSize=12;align=center;" vertex="1" parent="xtrtIprGjCq3bWZC8pVK-48">
          <mxGeometry x="390" y="200" width="80" height="40" as="geometry" />
        </mxCell>
        <mxCell id="xtrtIprGjCq3bWZC8pVK-6" value="Access Location" style="rounded=0;whiteSpace=wrap;html=1;shadow=0;glass=0;comic=0;strokeColor=#666666;fillColor=#f5f5f5;fontSize=12;align=center;fontColor=#333333;" vertex="1" parent="xtrtIprGjCq3bWZC8pVK-48">
          <mxGeometry x="120" y="200" width="80" height="40" as="geometry" />
        </mxCell>
        <mxCell id="xtrtIprGjCq3bWZC8pVK-7" value="Corp Devices on Corp Network" style="rounded=0;whiteSpace=wrap;html=1;shadow=0;glass=0;comic=0;strokeColor=#B3B3B3;fillColor=none;fontSize=12;align=center;" vertex="1" parent="xtrtIprGjCq3bWZC8pVK-48">
          <mxGeometry x="210" y="250" width="80" height="40" as="geometry" />
        </mxCell>
        <mxCell id="xtrtIprGjCq3bWZC8pVK-8" value="Corp Device on Public Network" style="rounded=0;whiteSpace=wrap;html=1;shadow=0;glass=0;comic=0;strokeColor=#B3B3B3;fillColor=none;fontSize=12;align=center;" vertex="1" parent="xtrtIprGjCq3bWZC8pVK-48">
          <mxGeometry x="300" y="250" width="80" height="40" as="geometry" />
        </mxCell>
        <mxCell id="xtrtIprGjCq3bWZC8pVK-9" value="Public Device&lt;br&gt;on Corp Network" style="rounded=0;whiteSpace=wrap;html=1;shadow=0;glass=0;comic=0;strokeColor=#B3B3B3;fillColor=none;fontSize=12;align=center;" vertex="1" parent="xtrtIprGjCq3bWZC8pVK-48">
          <mxGeometry x="390" y="250" width="80" height="40" as="geometry" />
        </mxCell>
        <mxCell id="xtrtIprGjCq3bWZC8pVK-10" value="Access Network" style="rounded=0;whiteSpace=wrap;html=1;shadow=0;glass=0;comic=0;strokeColor=#666666;fillColor=#f5f5f5;fontSize=12;align=center;fontColor=#333333;" vertex="1" parent="xtrtIprGjCq3bWZC8pVK-48">
          <mxGeometry x="120" y="250" width="80" height="40" as="geometry" />
        </mxCell>
        <mxCell id="xtrtIprGjCq3bWZC8pVK-11" value="Public Device on Public Network" style="rounded=0;whiteSpace=wrap;html=1;shadow=0;glass=0;comic=0;strokeColor=#B3B3B3;fillColor=none;fontSize=12;align=center;" vertex="1" parent="xtrtIprGjCq3bWZC8pVK-48">
          <mxGeometry x="480" y="250" width="80" height="40" as="geometry" />
        </mxCell>
        <mxCell id="xtrtIprGjCq3bWZC8pVK-12" value="Access Device Ownership" style="rounded=0;whiteSpace=wrap;html=1;shadow=0;glass=0;comic=0;strokeColor=#666666;fillColor=#f5f5f5;fontSize=12;align=center;fontColor=#333333;" vertex="1" parent="xtrtIprGjCq3bWZC8pVK-48">
          <mxGeometry x="120" y="300" width="80" height="40" as="geometry" />
        </mxCell>
        <mxCell id="xtrtIprGjCq3bWZC8pVK-13" value="Corporate Device" style="rounded=0;whiteSpace=wrap;html=1;shadow=0;glass=0;comic=0;strokeColor=#B3B3B3;fillColor=none;fontSize=12;align=center;" vertex="1" parent="xtrtIprGjCq3bWZC8pVK-48">
          <mxGeometry x="210" y="300" width="80" height="40" as="geometry" />
        </mxCell>
        <mxCell id="xtrtIprGjCq3bWZC8pVK-14" value="BYOD" style="rounded=0;whiteSpace=wrap;html=1;shadow=0;glass=0;comic=0;strokeColor=#B3B3B3;fillColor=none;fontSize=12;align=center;" vertex="1" parent="xtrtIprGjCq3bWZC8pVK-48">
          <mxGeometry x="300" y="300" width="80" height="40" as="geometry" />
        </mxCell>
        <mxCell id="xtrtIprGjCq3bWZC8pVK-15" value="Access Device Type" style="rounded=0;whiteSpace=wrap;html=1;shadow=0;glass=0;comic=0;strokeColor=#666666;fillColor=#f5f5f5;fontSize=12;align=center;fontColor=#333333;" vertex="1" parent="xtrtIprGjCq3bWZC8pVK-48">
          <mxGeometry x="120" y="350" width="80" height="40" as="geometry" />
        </mxCell>
        <mxCell id="xtrtIprGjCq3bWZC8pVK-16" value="Desktop Browser" style="rounded=0;whiteSpace=wrap;html=1;shadow=0;glass=0;comic=0;strokeColor=#B3B3B3;fillColor=none;fontSize=12;align=center;" vertex="1" parent="xtrtIprGjCq3bWZC8pVK-48">
          <mxGeometry x="210" y="350" width="80" height="40" as="geometry" />
        </mxCell>
        <mxCell id="xtrtIprGjCq3bWZC8pVK-17" value="Smart phone&amp;nbsp;&lt;br&gt;Device" style="rounded=0;whiteSpace=wrap;html=1;shadow=0;glass=0;comic=0;strokeColor=#B3B3B3;fillColor=none;fontSize=12;align=center;" vertex="1" parent="xtrtIprGjCq3bWZC8pVK-48">
          <mxGeometry x="390" y="350" width="80" height="40" as="geometry" />
        </mxCell>
        <mxCell id="xtrtIprGjCq3bWZC8pVK-18" value="Laptop Device" style="rounded=0;whiteSpace=wrap;html=1;shadow=0;glass=0;comic=0;strokeColor=#B3B3B3;fillColor=none;fontSize=12;align=center;" vertex="1" parent="xtrtIprGjCq3bWZC8pVK-48">
          <mxGeometry x="300" y="350" width="80" height="40" as="geometry" />
        </mxCell>
        <mxCell id="xtrtIprGjCq3bWZC8pVK-19" value="Smart Watch" style="rounded=0;whiteSpace=wrap;html=1;shadow=0;glass=0;comic=0;strokeColor=#B3B3B3;fillColor=none;fontSize=12;align=center;" vertex="1" parent="xtrtIprGjCq3bWZC8pVK-48">
          <mxGeometry x="480" y="350" width="80" height="40" as="geometry" />
        </mxCell>
        <mxCell id="xtrtIprGjCq3bWZC8pVK-20" value="Voice" style="rounded=0;whiteSpace=wrap;html=1;shadow=0;glass=0;comic=0;strokeColor=#B3B3B3;fillColor=none;fontSize=12;align=center;" vertex="1" parent="xtrtIprGjCq3bWZC8pVK-48">
          <mxGeometry x="570" y="350" width="80" height="40" as="geometry" />
        </mxCell>
        <mxCell id="mM1z1xGTrgnPffgzlvfD-0" value="Access Hours" style="rounded=0;whiteSpace=wrap;html=1;shadow=0;glass=0;comic=0;strokeColor=#666666;fillColor=#f5f5f5;fontSize=12;align=center;fontColor=#333333;" vertex="1" parent="xtrtIprGjCq3bWZC8pVK-48">
          <mxGeometry x="120" y="400" width="80" height="40" as="geometry" />
        </mxCell>
        <mxCell id="mM1z1xGTrgnPffgzlvfD-1" value="Business Hours" style="rounded=0;whiteSpace=wrap;html=1;shadow=0;glass=0;comic=0;strokeColor=#B3B3B3;fillColor=none;fontSize=12;align=center;" vertex="1" parent="xtrtIprGjCq3bWZC8pVK-48">
          <mxGeometry x="210" y="400" width="80" height="40" as="geometry" />
        </mxCell>
        <mxCell id="mM1z1xGTrgnPffgzlvfD-2" value="offline every 2 weeks for upgrades." style="rounded=0;whiteSpace=wrap;html=1;shadow=0;glass=0;comic=0;strokeColor=#B3B3B3;fillColor=none;fontSize=12;align=center;" vertex="1" parent="xtrtIprGjCq3bWZC8pVK-48">
          <mxGeometry x="300" y="400" width="80" height="40" as="geometry" />
        </mxCell>
        <mxCell id="mM1z1xGTrgnPffgzlvfD-3" value="Offline rarely" style="rounded=0;whiteSpace=wrap;html=1;shadow=0;glass=0;comic=0;strokeColor=#B3B3B3;fillColor=none;fontSize=12;align=center;" vertex="1" parent="xtrtIprGjCq3bWZC8pVK-48">
          <mxGeometry x="390" y="400" width="80" height="40" as="geometry" />
        </mxCell>
        <mxCell id="mM1z1xGTrgnPffgzlvfD-4" value="99.99% available" style="rounded=0;whiteSpace=wrap;html=1;shadow=0;glass=0;comic=0;strokeColor=#B3B3B3;fillColor=none;fontSize=12;align=center;" vertex="1" parent="xtrtIprGjCq3bWZC8pVK-48">
          <mxGeometry x="480" y="400" width="80" height="40" as="geometry" />
        </mxCell>
        <mxCell id="ILN_eGuTsBcTbiqSokJy-5" value="More opportunities" style="endArrow=classic;html=1;dashed=1;labelBackgroundColor=none;strokeColor=#999999;fontFamily=Helvetica;fontSize=12;fontColor=#666666;" edge="1" parent="xtrtIprGjCq3bWZC8pVK-48">
          <mxGeometry x="-0.0948" y="10" width="50" height="50" relative="1" as="geometry">
            <mxPoint x="210" y="180" as="sourcePoint" />
            <mxPoint x="680" y="180" as="targetPoint" />
            <mxPoint as="offset" />
          </mxGeometry>
        </mxCell>
        <mxCell id="H0S9pE_0NT19e9u1CxKv-0" value="Access Device Type" style="rounded=0;whiteSpace=wrap;html=1;shadow=0;glass=0;comic=0;strokeColor=#666666;fillColor=#f5f5f5;fontSize=12;align=center;fontColor=#333333;" vertex="1" parent="xtrtIprGjCq3bWZC8pVK-48">
          <mxGeometry x="120" y="450" width="80" height="40" as="geometry" />
        </mxCell>
        <mxCell id="H0S9pE_0NT19e9u1CxKv-1" value="PC" style="rounded=0;whiteSpace=wrap;html=1;shadow=0;glass=0;comic=0;strokeColor=#B3B3B3;fillColor=none;fontSize=12;align=center;" vertex="1" parent="xtrtIprGjCq3bWZC8pVK-48">
          <mxGeometry x="210" y="450" width="80" height="40" as="geometry" />
        </mxCell>
        <mxCell id="H0S9pE_0NT19e9u1CxKv-3" value="Monochrome Displays (ie: colour blind)" style="rounded=0;whiteSpace=wrap;html=1;shadow=0;glass=0;comic=0;strokeColor=#B3B3B3;fillColor=none;fontSize=12;align=center;" vertex="1" parent="xtrtIprGjCq3bWZC8pVK-48">
          <mxGeometry x="390" y="450" width="80" height="40" as="geometry" />
        </mxCell>
        <mxCell id="H0S9pE_0NT19e9u1CxKv-4" value="Mobile" style="rounded=0;whiteSpace=wrap;html=1;shadow=0;glass=0;comic=0;strokeColor=#B3B3B3;fillColor=none;fontSize=12;align=center;" vertex="1" parent="xtrtIprGjCq3bWZC8pVK-48">
          <mxGeometry x="300" y="450" width="80" height="40" as="geometry" />
        </mxCell>
        <mxCell id="H0S9pE_0NT19e9u1CxKv-5" value="Reader&lt;br&gt;(ie: legally blind)" style="rounded=0;whiteSpace=wrap;html=1;shadow=0;glass=0;comic=0;strokeColor=#B3B3B3;fillColor=none;fontSize=12;align=center;" vertex="1" parent="xtrtIprGjCq3bWZC8pVK-48">
          <mxGeometry x="480" y="450" width="80" height="40" as="geometry" />
        </mxCell>
        <mxCell id="E777v5j3KCza3Fu8V6sD-0" value="Title/Diagram" parent="xtrtIprGjCq3bWZC8pVK-0" />
        <mxCell id="E777v5j3KCza3Fu8V6sD-1" value="&lt;font style=&quot;font-size: 12px ; font-weight: normal&quot;&gt;&lt;i&gt;Diagram: UserContext - Decisions - Access&lt;/i&gt;&lt;/font&gt;" style="text;strokeColor=none;fillColor=none;html=1;fontSize=10;fontStyle=1;verticalAlign=middle;align=left;shadow=0;glass=0;comic=0;opacity=30;fontColor=#808080;" vertex="1" parent="E777v5j3KCza3Fu8V6sD-0">
          <mxGeometry x="120" y="500" width="520" height="20" as="geometry" />
        </mxCell>
      </root>
    </mxGraphModel>
  </diagram>
</mxfile>
